HIERARCHY
ROOT Hips
{
	OFFSET 0.00000 0.00000 0.00000
	CHANNELS 6 Xposition Yposition Zposition Zrotation Yrotation Xrotation 
	JOINT LHipJoint
	{
		OFFSET 0 0 0
		CHANNELS 3 Zrotation Yrotation Xrotation
		JOINT LeftUpLeg
		{
			OFFSET 1.52977 -1.71332 0.88991
			CHANNELS 3 Zrotation Yrotation Xrotation
			JOINT LeftLeg
			{
				OFFSET 2.23949 -6.15296 0.00000
				CHANNELS 3 Zrotation Yrotation Xrotation
				JOINT LeftFoot
				{
					OFFSET 2.68396 -7.37412 0.00000
					CHANNELS 3 Zrotation Yrotation Xrotation
					JOINT LeftToeBase
					{
						OFFSET 0.20538 -0.56428 2.52710
						CHANNELS 3 Zrotation Yrotation Xrotation
						End Site
						{
							OFFSET 0.00000 -0.00000 1.29919
						}
					}
				}
			}
		}
	}
	JOINT RHipJoint
	{
		OFFSET 0 0 0
		CHANNELS 3 Zrotation Yrotation Xrotation
		JOINT RightUpLeg
		{
			OFFSET -1.45689 -1.71333 0.88991
			CHANNELS 3 Zrotation Yrotation Xrotation
			JOINT RightLeg
			{
				OFFSET -2.36700 -6.50329 0.00000
				CHANNELS 3 Zrotation Yrotation Xrotation
				JOINT RightFoot
				{
					OFFSET -2.69814 -7.41308 0.00000
					CHANNELS 3 Zrotation Yrotation Xrotation
					JOINT RightToeBase
					{
						OFFSET -0.18734 -0.51471 2.37479
						CHANNELS 3 Zrotation Yrotation Xrotation
						End Site
						{
							OFFSET -0.00000 -0.00000 1.22113
						}
					}
				}
			}
		}
	}
	JOINT LowerBack
	{
		OFFSET 0 0 0
		CHANNELS 3 Zrotation Yrotation Xrotation
		JOINT Spine
		{
			OFFSET 0.04294 2.14638 -0.31163
			CHANNELS 3 Zrotation Yrotation Xrotation
			JOINT Spine1
			{
				OFFSET -0.00400 2.17216 0.01486
				CHANNELS 3 Zrotation Yrotation Xrotation
				JOINT Neck
				{
					OFFSET 0 0 0
					CHANNELS 3 Zrotation Yrotation Xrotation
					JOINT Neck1
					{
						OFFSET 0.03869 1.76598 0.14916
						CHANNELS 3 Zrotation Yrotation Xrotation
						JOINT Head
						{
							OFFSET -0.00760 1.75513 -0.18948
							CHANNELS 3 Zrotation Yrotation Xrotation
							End Site
							{
								OFFSET -0.00601 1.82444 -0.08310
							}
						}
					}
				}
				JOINT LeftShoulder
				{
					OFFSET 0 0 0
					CHANNELS 3 Zrotation Yrotation Xrotation
					JOINT LeftArm
					{
						OFFSET 3.73696 0.92058 0.01733
						CHANNELS 3 Zrotation Yrotation Xrotation
						JOINT LeftForeArm
						{
							OFFSET 5.22771 -0.00000 0.00000
							CHANNELS 3 Zrotation Yrotation Xrotation
							JOINT LeftHand
							{
								OFFSET 3.45251 -0.00000 0.00000
								CHANNELS 3 Zrotation Yrotation Xrotation
								JOINT LeftFingerBase
								{
									OFFSET 0 0 0
									CHANNELS 3 Zrotation Yrotation Xrotation
									JOINT LeftHandIndex1
									{
										OFFSET 0.55212 -0.00000 0.00000
										CHANNELS 3 Zrotation Yrotation Xrotation
										End Site
										{
											OFFSET 0.44513 -0.00000 0.00000
										}
									}
								}
								JOINT LThumb
								{
									OFFSET 0 0 0
									CHANNELS 3 Zrotation Yrotation Xrotation
									End Site
									{
										OFFSET 0.45193 -0.00000 0.45193
									}
								}
							}
						}
					}
				}
				JOINT RightShoulder
				{
					OFFSET 0 0 0
					CHANNELS 3 Zrotation Yrotation Xrotation
					JOINT RightArm
					{
						OFFSET -3.63819 0.83094 -0.13694
						CHANNELS 3 Zrotation Yrotation Xrotation
						JOINT RightForeArm
						{
							OFFSET -5.23980 -0.00000 -0.00000
							CHANNELS 3 Zrotation Yrotation Xrotation
							JOINT RightHand
							{
								OFFSET -3.48042 -0.00000 -0.00000
								CHANNELS 3 Zrotation Yrotation Xrotation
								JOINT RightFingerBase
								{
									OFFSET 0 0 0
									CHANNELS 3 Zrotation Yrotation Xrotation
									JOINT RightHandIndex1
									{
										OFFSET -0.61871 -0.00000 0.00000
										CHANNELS 3 Zrotation Yrotation Xrotation
										End Site
										{
											OFFSET -0.49882 -0.00000 0.00000
										}
									}
								}
								JOINT RThumb
								{
									OFFSET 0 0 0
									CHANNELS 3 Zrotation Yrotation Xrotation
									End Site
									{
										OFFSET -0.50644 -0.00000 0.50644
									}
								}
							}
						}
					}
				}
			}
		}
	}
}
MOTION
Frames: 5
Frame Time: .0083333
2.3405 17.9328 -4.9536 -10.1426 87.3794 -10.6517 0.0000 0.0000 0.0000 -21.4320 14.8178 7.2045 0.2195 3.0160 8.3234 0.3783 -0.3866 11.7651 3.0356 -10.7525 -31.4496 0.0000 0.0000 0.0000 18.1943 10.9142 -25.3234 -3.4311 -11.3622 33.5115 0.2358 -8.7796 -1.1996 -0.0014 -0.2429 0.6674 -0.6034 -1.2816 5.9368 -1.2171 -1.7626 0.6529 -0.7707 -0.8691 -2.6749 1.7958 1.1419 -6.1884 1.7386 1.2293 12.0844 0.3160 0.8285 4.6401 -0.0000 -0.0000 0.0000 -87.0793 2.7339 5.6306 7.3258 -12.4543 -0.8004 -0.0000 0.0000 -4.8899 18.5764 11.0981 3.7014 -7.1250 0.0000 -0.0000 -7.6140 41.5505 0.6521 -0.0000 -0.0000 0.0000 90.3717 -7.2105 26.9713 -17.0969 26.9854 -4.1312 0.0000 -0.0000 -1.9948 -25.7781 -31.5485 14.1811 7.1250 -0.0000 -0.0000 7.5404 -64.1152 -3.5018
2.2333 17.9401 -4.9644 -11.1556 87.3100 -11.6696 0.0000 0.0000 0.0000 -21.5226 14.7231 6.1165 0.2848 3.4320 9.4840 0.3464 -0.5342 11.3244 3.0293 -10.7423 -31.4157 0.0000 0.0000 0.0000 18.2607 10.8291 -25.3912 -3.6978 -11.7471 34.8431 0.2306 -8.6414 -1.3874 -0.0001 -0.0636 0.1747 -0.4743 -1.2697 5.9385 -1.2190 -1.7388 0.6454 -0.8469 -0.8588 -2.6873 1.7895 1.1501 -6.2152 1.7062 1.2442 12.1871 0.3087 0.8355 4.6763 -0.0000 -0.0000 0.0000 -87.0679 2.8833 5.0931 7.2137 -12.2703 -0.7764 -0.0000 0.0000 -4.4553 18.5606 11.1500 3.7151 -7.1250 0.0000 -0.0000 -7.6374 41.6030 0.6442 -0.0000 -0.0000 0.0000 90.3942 -7.2780 26.9498 -17.0584 26.9347 -4.1138 0.0000 -0.0000 -1.9233 -25.6364 -31.5596 14.0995 7.1250 -0.0000 -0.0000 7.7212 -64.0877 -3.5812
2.1271 17.9468 -4.9732 -11.6034 87.2492 -12.1083 0.0000 0.0000 0.0000 -21.6636 14.3673 5.1507 0.3528 3.8159 10.5594 0.3223 -0.3910 10.8723 3.0270 -10.7386 -31.4033 0.0000 0.0000 0.0000 18.2948 10.8119 -25.4435 -3.9910 -12.1484 36.2589 0.2270 -8.5535 -1.4879 -0.0016 0.2589 -0.7114 -0.3968 -1.2594 5.9305 -1.2202 -1.7207 0.6251 -0.8929 -0.8508 -2.7057 1.7838 1.1596 -6.2200 1.6692 1.2623 12.2649 0.2998 0.8434 4.7011 0.0000 0.0000 0.0000 -87.0591 3.0559 4.5908 7.1078 -12.0966 -0.7541 -0.0000 0.0000 -4.0665 18.5480 11.1865 3.7243 -7.1250 0.0000 -0.0000 -7.6553 41.6397 0.6387 0.0000 0.0000 0.0000 90.4050 -7.3600 26.9495 -17.0328 26.9010 -4.1022 0.0000 -0.0000 -1.8789 -25.5407 -31.5832 14.0506 7.1250 -0.0000 -0.0000 7.8537 -64.0854 -3.6427
2.0222 17.9524 -4.9800 -11.6152 87.2081 -12.1082 0.0000 0.0000 0.0000 -21.8116 14.0317 4.2147 0.4233 4.1757 11.5715 0.3014 -0.2651 10.4698 3.0281 -10.7404 -31.4091 0.0000 0.0000 0.0000 18.3016 10.8274 -25.4661 -4.3087 -12.5602 37.7436 0.2233 -8.4760 -1.5176 -0.0102 0.6510 -1.7889 -0.3637 -1.2539 5.9153 -1.2213 -1.7119 0.6001 -0.9134 -0.8470 -2.7239 1.7780 1.1712 -6.2088 1.6301 1.2841 12.3212 0.2902 0.8525 4.7167 0.0000 -0.0000 0.0000 -87.0533 3.2398 4.1187 7.0069 -11.9305 -0.7331 -0.0000 0.0000 -3.7190 18.5363 11.2004 3.7264 -7.1250 0.0000 -0.0000 -7.6681 41.6530 0.6373 0.0000 -0.0000 0.0000 90.4052 -7.4462 26.9670 -17.0173 26.8806 -4.0952 0.0000 -0.0000 -1.8639 -25.4940 -31.6153 14.0346 7.1250 -0.0000 -0.0000 7.9324 -64.1053 -3.6831
1.9186 17.9557 -4.9855 -11.4086 87.1849 -11.8938 0.0000 0.0000 0.0000 -21.9552 13.7198 3.3027 0.4972 4.5207 12.5463 0.2824 -0.1676 10.0994 3.0297 -10.7430 -31.4181 0.0000 0.0000 0.0000 18.2972 10.8440 -25.4419 -4.6477 -12.9757 39.2776 0.2181 -8.3752 -1.5173 -0.0251 1.0225 -2.8106 -0.3543 -1.2519 5.8903 -1.2237 -1.7090 0.5761 -0.9216 -0.8459 -2.7350 1.7756 1.1823 -6.1834 1.5885 1.3055 12.3588 0.2791 0.8611 4.7242 0.0000 -0.0000 0.0000 -87.0450 3.4245 3.6750 6.9076 -11.7671 -0.7127 -0.0000 0.0000 -3.4064 18.5473 11.2302 3.7385 -7.1250 0.0000 -0.0000 -7.6638 41.6849 0.6308 0.0000 -0.0000 0.0000 90.4013 -7.5328 26.9896 -17.0106 26.8717 -4.0921 0.0000 -0.0000 -1.8702 -25.4917 -31.6492 14.0462 7.1250 -0.0000 -0.0000 7.9581 -64.1392 -3.7014
